<svg xmlns="http://www.w3.org/2000/svg" viewBox="0 0 410 404">
  <defs>
    <linearGradient id="vite_a" x1="255.98" x2="114.79" y1="6.271" y2="190.34" gradientUnits="userSpaceOnUse">
      <stop stop-color="#41d1ff"/>
      <stop offset="1" stop-color="#bd34fe"/>
    </linearGradient>
    <linearGradient id="vite_b" x1="115.37" x2="172.29" y1="33.75" y2="192.23" gradientUnits="userSpaceOnUse">
      <stop stop-color="#ffea83"/>
      <stop offset=".083" stop-color="#ffdd35"/>
      <stop offset="1" stop-color="#ffa800"/>
    </linearGradient>
  </defs>
  <path fill="url(#vite_a)" d="M399.4 29.3 215.6 382.6c-3.6 6.9-13.4 6.9-17 0L10.6 29.4c-3.8-7 1.3-15.5 9.2-14.9l185 13.5a9.8 9.8 0 0 0 7.3-2.7l54.2-52.1a9.8 9.8 0 0 1 13.2 0l120.1 114.9c6 5.8 1.7 15.8-6.2 16.5l-60.5 5.5a9.8 9.8 0 0 0-8.5 6.3l-83 217.8c-2.7 7-12.8 7-15.5 0l-66.6-174.9a9.8 9.8 0 0 0-9-6.4l-59-4.9c-8.1-.7-12-10.6-6-16.6L201.5 13a9.8 9.8 0 0 1 13.1 0l185.6 176.8c6 5.7 1.9 15.9-6 16.6l-59 4.9a9.8 9.8 0 0 0-9 6.4L260 392.6c-2.8 7-12.9 7-15.6 0L121.4 109.4a9.8 9.8 0 0 0-8.5-6.3l-60.5-5.5c-7.9-.7-12.2-10.7-6.2-16.5L166.3-35.6a9.8 9.8 0 0 1 13.2 0l54.2 52.1a9.8 9.8 0 0 0 7.3 2.7l185-13.5c7.9-.6 12.9 7.9 9.1 14.8Z"/>
  <path fill="url(#vite_b)" d="m253.2-24.2-66.6 174.9a9.8 9.8 0 0 1-9 6.4l-59 4.9c-8 .7-12.1 10.9-6 16.6L215.5 352a9.8 9.8 0 0 0 15.6 0l102-128.2c4.5-5.7 13.7-4 15.5 3.1l40 152.4c2 7.7-6.5 14-13.4 9.7l-168.7-105a9.8 9.8 0 0 0-10 0L28.8 388c-6.9 4.3-15.4-2-13.4-9.7l40-152.4c1.7-7.1 11-8.8 15.5-3.1l102 128.2a9.8 9.8 0 0 0 15.6 0l102-128.2c4.4-5.7 13.8-4 15.5 3.1l40 152.4c1.9 7.6-6.6 13.9-13.4 9.6L215.9 304a9.8 9.8 0 0 0-10 0L37.2 413.5c-6.8 4.3-15.3-2-13.4-9.6l40-152.5c1.8-7 11-8.7 15.5-3l102 128.1a9.8 9.8 0 0 0 15.6 0l102-128.2c4.4-5.7 13.7-4 15.5 3.1l40 152.4c2 7.7-6.5 14-13.4 9.7l-168.7-105a9.8 9.8 0 0 0-10 0L28.8 388.1c-6.9 4.3-15.4-2-13.4-9.7l40-152.4c1.8-7 11-8.7 15.5-3l102 128.2a9.8 9.8 0 0 0 15.6 0l102-128.2c4.4-5.7 13.7-4 15.5 3.1l40 152.4c1.9 7.6-6.6 13.9-13.4 9.6L215.9 304a9.8 9.8 0 0 0-10 0L37.2 413.5c-6.8 4.3-15.3-2-13.4-9.6l40-152.5c1.8-7 11-8.7 15.5-3l102 128.1a9.8 9.8 0 0 0 15.6 0L310 248.3c4.5-5.7 13.8-4 15.5 3.1l40 152.4c2 7.7-6.5 14-13.4 9.7l-168.7-105a9.8 9.8 0 0 0-10 0L28.8 388.1c-6.9 4.3-15.4-2-13.4-9.7l40-152.4c1.8-7 11-8.7 15.5-3l102 128.2a9.8 9.8 0 0 0 15.6 0l102-128.2c4.4-5.7 13.7-4 15.5 3.1l40 152.4c1.9 7.6-6.6 13.9-13.4 9.6L215.9 304a9.8 9.8 0 0 0-10 0L37.2 413.5c-6.8 4.3-15.3-2-13.4-9.6l40-152.5c1.8-7 11-8.7 15.5-3l102 128.1a9.8 9.8 0 0 0 15.6 0l101.8-128Z"/>
</svg>
